<svg width="80" height="75" viewBox="0 0 80 75" fill="none" xmlns="http://www.w3.org/2000/svg">
<mask id="mask0_79_2" style="mask-type:luminance" maskUnits="userSpaceOnUse" x="0" y="0" width="80" height="75">
<path d="M79.9879 0H0V74.992H79.9879V0Z" fill="white"/>
</mask>
<g mask="url(#mask0_79_2)">
<path d="M41.5 49.4241C41.2321 49.4977 38.3748 45.0739 38.8625 39.8681C39.2771 35.4448 41.9689 31.9361 42.0072 31.9508C42.0272 31.9587 41.4606 32.9972 40.8735 34.7716C40.3474 36.362 40.0779 37.7201 39.9294 38.6661C41.7844 34.6933 42.3019 33.8497 42.4058 33.8865C42.6314 33.9659 40.3315 38.027 40.4451 43.3874C40.5228 47.0569 41.6908 49.3721 41.5 49.4241ZM59.5118 16.7532C59.3959 16.6623 59.0886 16.707 59.0692 16.7106C58.9618 16.7301 58.8402 16.7695 58.7099 16.8483C58.3775 17.0486 58.2456 17.3461 58.1971 17.324C58.1605 17.3077 58.2616 17.1537 58.1896 17.0607C58.1097 16.9577 57.843 16.9598 57.6653 17.0554C57.3986 17.1984 57.4746 17.4711 57.2941 17.7844C57.0662 18.1801 56.6116 18.3263 55.8634 18.5665C55.1426 18.7982 54.5778 18.8329 54.5675 18.794C54.5572 18.7588 55.0044 18.7136 55.1249 18.4387C55.1992 18.2706 55.1426 18.0361 54.9953 17.9515C54.8474 17.8664 54.644 17.9531 54.4933 18.0067C54.0209 18.1749 54.0569 18.0214 52.6868 18.197C51.9946 18.2853 51.649 18.3294 51.5211 18.3825C51.083 18.5659 50.8563 18.8702 50.6393 19.2334C50.3708 19.4547 50.1424 19.6486 50.015 19.7616C50.015 19.7616 49.0749 20.5731 47.9532 21.6742C47.5831 22.1309 47.2707 22.5419 47.0217 22.882C49.8454 20.2909 50.5125 19.7742 50.5536 19.831C50.641 19.9545 47.5329 22.493 45.1604 26.6987C43.5367 29.5783 43.1272 31.698 42.9986 31.687C42.8359 31.6733 43.182 28.2386 45.1815 24.6884C44.2791 25.7679 43.1506 27.2169 42.1922 28.7695C40.613 31.3275 37.6437 36.1381 38.2228 42.2899C38.6666 46.9954 41.0025 50.5363 42.7005 52.5855C42.7314 52.6701 42.7999 52.7505 42.889 52.823C42.9255 52.8698 42.9627 52.9161 42.9992 52.9618C42.8639 52.8992 42.6948 52.8414 42.5714 52.8966C42.5069 52.9255 42.4429 52.9923 42.4464 53.0732C42.4515 53.2235 42.68 53.3707 42.8781 53.4984C43.0757 53.6256 43.2699 53.7128 43.2625 53.7412C43.2591 53.7533 43.2197 53.7375 43.1791 53.7533C43.0877 53.7896 43.0957 53.952 43.0969 53.9656C43.1112 54.1995 43.656 54.3356 43.9724 54.6652C44.503 55.2186 44.3785 56.3092 44.0775 56.356C43.9176 56.3807 43.6646 56.0821 43.158 55.4846C42.9587 55.2496 42.8067 55.052 42.66 54.8938C41.2967 52.4762 39.1955 49.6486 35.9217 47.2235C35.1536 46.6543 34.386 46.1566 33.6355 45.7193C31.937 46.6628 29.906 48.0881 28.1818 50.2435C26.923 51.8171 26.1685 53.3533 26.3359 53.459C26.4986 53.5625 27.4119 52.2176 29.4017 51.0019C30.5183 50.3187 31.8981 49.7232 32.0546 49.9229C32.3767 50.3334 26.7922 53.1799 25.0828 58.4346C24.763 59.4185 24.5031 60.7183 24.6567 60.764C24.8321 60.816 25.3535 59.182 26.4347 57.5848C28.3502 54.754 31.2008 53.2514 31.4052 53.4501C31.6788 53.7155 26.8756 56.706 25.1753 62.3155C24.8618 63.3498 23.7332 67.0751 25.4632 68.3607C26.8196 69.3687 28.601 67.8871 33.3248 67.6869C37.2673 67.5198 39.9037 68.388 39.9836 68.0811C40.0556 67.8062 37.9858 66.9022 35.6802 66.5774C33.7777 66.3093 32.1917 66.5028 32.1705 66.3214C32.1517 66.1554 33.4859 65.8936 33.6212 65.8668C35.0508 65.5862 35.948 65.6813 35.9617 65.5636C35.9789 65.4153 34.5767 65.1273 33.3574 64.957C31.9718 64.7626 31.2493 64.7789 31.2476 64.7142C31.2442 64.5928 33.7275 63.9422 36.0937 64.4714C40.404 65.4358 42.5143 69.9111 42.9507 69.6589C43.2642 69.4775 41.6085 67.4919 41.1373 64.5623C40.5205 60.7267 42.3447 57.8234 41.9518 57.6946C41.6154 57.5848 40.2698 59.7128 39.5376 61.976C39.533 61.9902 39.529 62.0022 39.5262 62.0107C39.4331 61.3973 39.3525 60.2295 39.9357 58.9718C40.5565 57.6315 41.9506 56.1457 42.8787 56.3817C43.6412 56.5757 43.6012 57.8055 44.5704 57.9884C45.0753 58.0841 45.559 57.8397 45.7212 57.7582C46.3244 57.4539 46.5808 56.9667 46.6568 56.8027C46.5911 56.6545 46.4483 56.2955 46.5934 56.1789C46.7624 56.0427 47.2296 56.3071 47.4849 56.4537C48.9521 57.2989 49.5084 58.5902 50.1087 59.4606C50.1098 59.4632 50.1258 59.4853 50.1224 59.4874C50.0973 59.5063 49.0629 58.5313 48.012 57.394C47.618 56.9677 47.4678 56.7843 47.221 56.7875C46.7584 56.7932 46.6585 57.4465 45.9354 57.9101C45.1301 58.4257 44.4813 58.113 44.3197 58.4104C44.0992 58.8172 45.314 59.4101 46.9223 60.7351C46.5631 59.5494 46.6191 58.5035 46.6345 58.4972C46.6465 58.4924 46.7156 59.0564 47.012 59.8768C47.269 60.5858 47.566 61.1287 47.7979 61.5024C47.8053 61.5093 47.8127 61.5177 47.8196 61.524C47.4135 59.5031 47.3844 59.0249 47.4443 58.9975C47.5763 58.9392 47.8064 61.1781 49.5855 62.9399C50.8037 64.1461 52.0962 64.4824 52.0237 64.5728C51.9883 64.6159 51.6256 64.5891 51.1213 64.4651C51.4531 64.6575 51.8067 64.8298 52.1876 64.9581C52.3812 65.0233 52.5777 65.0674 52.7919 65.0995C53.845 65.2582 55.4453 65.1363 56.0559 64.2501C56.6019 63.4581 56.1627 62.3355 55.2974 60.7314C55.29 60.7167 55.282 60.703 55.274 60.6888C55.2723 60.7062 55.2746 60.723 55.2729 60.7409C55.0787 62.7533 52.5748 64.5702 52.536 64.5671C52.516 64.5655 53.0283 64.0488 53.5246 63.2027C53.969 62.4437 54.1706 61.8125 54.2711 61.3768C52.6222 63.3225 52.1493 63.7472 52.0442 63.7403C51.8152 63.7261 53.9033 61.699 53.5252 59.3181C53.2665 57.6883 51.99 56.7643 52.1773 56.7228C52.2653 56.7039 52.6645 56.8837 53.1482 57.2153C52.4098 56.1268 51.7101 55.1845 51.1281 54.3929C50.4382 54.0445 49.7277 53.542 49.1954 52.8293C47.9646 51.1827 48.0954 48.9805 48.1183 48.9711C48.1297 48.9664 48.1988 49.5308 48.4958 50.3507C48.7619 51.0855 49.0726 51.6457 49.3079 52.02C48.8967 49.9791 48.867 49.4988 48.9281 49.472C49.0161 49.4325 49.1612 50.4332 49.7768 51.6253C50.0544 51.6741 50.4845 51.7041 50.7815 51.4786C51.316 51.0723 51.1898 50.008 50.7638 49.3637C49.7443 47.8216 47.1691 48.9196 46.1759 47.5063C45.3677 46.3569 46.1187 44.2772 45.0673 43.7001C44.9702 43.647 44.6601 43.4983 44.6823 43.3485C44.7143 43.1367 45.3917 43.2165 45.6384 42.9238C46.1564 42.3078 45.1358 40.8499 44.9462 40.5571C42.6108 36.9543 46.8475 27.9995 51.7947 22.2187C52.2459 21.6915 52.6211 21.2863 52.8193 21.0745C53.1528 20.8906 53.5235 20.7303 53.965 20.6609C54.9268 20.509 55.3917 20.8648 56.025 20.4659C56.3849 20.2394 56.4574 19.9829 57.0165 19.688C57.4352 19.4662 57.8047 19.3911 57.8989 19.369C58.8836 19.1393 59.8813 17.0423 59.5118 16.7532Z" fill="white"/>
<path d="M49.7914 47.3203C49.6292 47.2368 49.7811 46.3564 50.4305 45.8697C50.9279 45.4971 51.5619 45.4719 51.5784 45.5155C51.5933 45.5565 51.0781 45.6574 50.6104 46.0752C50.3414 46.3154 50.1832 46.5756 50.0884 46.7711C50.2957 46.5782 50.6315 46.3217 51.1067 46.1667C51.8783 45.9155 52.6168 46.0616 52.6173 46.1063C52.6185 46.1509 51.8868 46.0253 51.0884 46.3722C50.2203 46.7496 49.9387 47.3965 49.7914 47.3203ZM52.5893 39.658C52.5174 38.9999 52.4608 38.4959 52.4586 38.1007C52.2701 38.0975 52.0805 38.1212 51.9491 38.2426C51.8206 38.3614 51.8486 38.4812 51.7189 38.56C51.5847 38.642 51.4122 38.5979 51.0393 38.4765C50.222 38.2116 50.0992 38.1164 49.9187 38.1895C49.744 38.2599 49.5869 38.4575 49.5224 38.6373C49.4458 38.8559 49.4904 38.8465 49.4276 38.9242C49.2459 39.1487 48.8958 38.971 48.6114 39.217C48.4943 39.3184 48.5046 39.3358 48.3652 39.4057C48.1608 39.5082 48.0643 39.4477 47.8998 39.5344C47.6982 39.6411 47.7553 39.7804 47.5788 39.8761C47.372 39.988 47.2001 39.8477 46.9517 39.8866C46.6107 39.9407 46.3731 40.2965 46.2966 40.4868C45.9733 41.2941 47.4343 41.9358 47.2715 42.9129C47.1619 43.5746 46.4508 43.532 46.1156 44.3324C45.7352 45.2406 46.2138 46.337 46.7855 46.9829C47.8832 48.2238 49.9381 48.4976 50.17 48.1423C50.2386 48.0378 50.1517 47.8743 50.0746 47.7587C50.2728 47.5159 50.5236 47.251 50.9188 46.994C51.7035 46.4831 52.4488 46.3911 53.1845 46.4043C53.0719 44.7928 52.9109 42.5838 52.5893 39.658Z" fill="white"/>
<path d="M47.7879 10.3608C48.724 10.6251 49.447 11.2259 49.8503 11.9738C49.9171 12.0967 50.085 12.1335 50.2141 12.0642C51.0251 11.6274 51.6687 10.9226 51.9663 10.0307C52.2644 9.13827 52.1611 8.22272 51.7561 7.44171C51.6922 7.3182 51.53 7.26196 51.4003 7.32871C50.6099 7.74024 49.6452 7.86375 48.7091 7.59938C47.773 7.33449 47.05 6.73428 46.6468 5.98586C46.5805 5.8634 46.4115 5.82661 46.283 5.89546C45.4714 6.33222 44.8277 7.03702 44.5307 7.92945C44.2326 8.82188 44.3354 9.73743 44.7409 10.5179C44.8049 10.6414 44.9676 10.6982 45.0967 10.6309C45.8872 10.2199 46.8512 10.0964 47.7879 10.3608Z" fill="#CCF201"/>
<path d="M48.7992 7.33C49.729 7.59279 50.6868 7.47243 51.4744 7.06826C51.6051 7.00099 51.6571 6.84647 51.5737 6.73137C51.0951 6.06598 50.3744 5.54198 49.48 5.28971C48.5856 5.0369 47.6695 5.09787 46.867 5.40166C46.7282 5.45369 46.6768 5.60873 46.7442 5.73172C47.1492 6.47331 47.8694 7.06721 48.7992 7.33Z" fill="#CCF201"/>
<path d="M49.6297 12.5586C49.7685 12.506 49.8199 12.351 49.7525 12.228C49.3476 11.4864 48.628 10.8925 47.6981 10.6303C46.7683 10.3675 45.8106 10.4873 45.0235 10.8915C44.8922 10.9593 44.8402 11.1133 44.9236 11.2289C45.4028 11.8943 46.123 12.4177 47.0174 12.6705C47.9112 12.9233 48.8273 12.8619 49.6297 12.5586Z" fill="#CCF201"/>
<path d="M54.0822 49.8784C53.5454 49.8627 53.7401 46.9667 52.936 39.6381C52.7721 38.1455 52.6698 37.4081 53.165 37.068C54.4666 36.1735 59.6599 38.1838 59.9655 41.6973C60.1682 44.033 58.1636 46.4816 55.056 47.1849C54.6237 49.4091 54.3021 49.8853 54.0822 49.8784Z" fill="#CCF201"/>
<path d="M37.1035 38.0191L36.8391 37.6522L37.1869 37.4394C37.1669 37.6359 37.1389 37.8288 37.1035 38.0191ZM36.7637 39.2221L36.5564 38.9346L36.9424 38.6986C36.8899 38.8773 36.8299 39.0513 36.7637 39.2221ZM36.0566 39.9159L35.7185 39.4455L36.2297 39.1338L36.5684 39.6042L36.0566 39.9159ZM35.6591 41.0385L35.4358 40.7279L35.947 40.4162L36.0475 40.556C35.9275 40.7237 35.7973 40.8845 35.6591 41.0385ZM34.9755 41.685L34.9361 41.7091L34.5974 41.2388L35.1085 40.9271L35.3901 41.3181C35.2587 41.4464 35.1217 41.5693 34.9755 41.685ZM34.0982 42.2205L33.7595 41.7501L34.2707 41.4379L34.6094 41.9083L34.0982 42.2205ZM33.7527 42.4313C33.5722 42.5128 33.3871 42.5837 33.1998 42.6478L32.9211 42.261L33.4323 41.9493L33.7715 42.4197L33.7527 42.4313ZM32.1775 42.9033L32.0832 42.7719L32.5944 42.4607L32.8137 42.765C32.6053 42.8213 32.3928 42.868 32.1775 42.9033ZM31.5275 42.0008L32.0387 41.6892L32.378 42.1596L31.8668 42.4712L31.5275 42.0008ZM31.0284 42.9821L30.6897 42.5122L31.2008 42.2006L31.5395 42.671L31.0284 42.9821ZM29.998 42.9343L30.363 42.7114L30.5595 42.9842C30.3727 42.9737 30.1859 42.9579 29.998 42.9343ZM29.2961 42.2521L29.8073 41.9399L30.146 42.4103L29.6348 42.7225L29.2961 42.2521ZM29.0797 41.9509L28.741 41.4805L29.2521 41.1689L29.5908 41.6392L29.0797 41.9509ZM28.6422 42.651L28.9694 42.4513L29.219 42.7981C29.0265 42.7561 28.8341 42.7062 28.6422 42.651ZM27.9031 41.9919L28.4143 41.6797L28.7524 42.1501L28.2412 42.4623L27.9031 41.9919ZM27.3474 41.2204L27.8586 40.9087L28.1973 41.3791L27.6861 41.6908L27.3474 41.2204ZM27.0858 42.0571C26.9036 41.9698 26.722 41.8763 26.5421 41.7775L26.5096 41.7312L27.0207 41.4201L27.3588 41.8905L27.0858 42.0571ZM25.9544 40.9602L26.465 40.6485L26.8037 41.1189L26.2925 41.4306L25.9544 40.9602ZM25.3987 40.1892L25.9099 39.8775L26.2486 40.3479L25.7374 40.6596L25.3987 40.1892ZM25.2542 40.9539C25.0897 40.8325 24.9287 40.7042 24.7693 40.5728L25.0715 40.3884L25.4101 40.8588L25.2542 40.9539ZM24.032 39.9127L24.5163 39.6174L24.855 40.0877L24.4723 40.3206C24.3233 40.1892 24.1765 40.0531 24.032 39.9127ZM23.45 39.158L23.9606 38.8458L24.2999 39.3162L23.7887 39.6284L23.45 39.158ZM23.233 38.8568L22.8943 38.3864L23.4055 38.0748L23.7441 38.5452L23.233 38.8568ZM22.3386 37.6149L22.8497 37.3038L23.189 37.7742L22.6778 38.0853L22.3386 37.6149ZM21.7834 36.8439L22.2946 36.5322L22.6339 37.0026L22.1227 37.3143L21.7834 36.8439ZM21.3551 35.9956L21.7395 35.7612L22.0781 36.2316L21.5927 36.5275C21.5082 36.3509 21.4288 36.1732 21.3551 35.9956ZM21.0255 35.0864L21.1838 34.9896L21.5224 35.46L21.218 35.6461C21.1483 35.4595 21.0832 35.2729 21.0255 35.0864ZM20.7 33.6647C20.672 33.477 20.6492 33.291 20.6338 33.1055L20.9113 32.9362L21.25 33.4066L20.7388 33.7183L20.7 33.6647ZM20.7217 30.9984L20.9776 31.3532L20.6435 31.5571C20.6629 31.3684 20.6886 31.1818 20.7217 30.9984ZM21.0575 29.7896L21.2597 30.0708L20.8851 30.2994C20.9353 30.126 20.9941 29.9567 21.0575 29.7896ZM21.7595 29.0895L22.0981 29.5594L21.587 29.8716L21.2483 29.4012L21.7595 29.0895ZM22.1558 27.9648L22.3808 28.2775L21.8697 28.5892L21.7692 28.4499C21.8891 28.2817 22.0182 28.1198 22.1558 27.9648ZM22.7995 27.3451L22.88 27.2957L23.2187 27.7661L22.7075 28.0778L22.4237 27.6836C22.5436 27.5664 22.6681 27.4529 22.7995 27.3451ZM23.7179 26.7849L24.0571 27.2553L23.546 27.5669L23.2067 27.0965L23.7179 26.7849ZM24.1468 26.5231C24.2981 26.4574 24.4518 26.3991 24.6077 26.3455L24.895 26.7439L24.3838 27.0561L24.0451 26.5857L24.1468 26.5231ZM25.6266 26.0853L25.7328 26.233L25.2217 26.5447L24.9926 26.2267C25.2011 26.1694 25.4118 26.1216 25.6266 26.0853ZM26.2885 27.004L25.7774 27.3162L25.4387 26.8458L25.9499 26.5336L26.2885 27.004ZM26.0738 26.0249L26.0601 26.0338L26.0549 26.027C26.0618 26.0265 26.0675 26.0259 26.0738 26.0249ZM26.7877 26.0228L27.1264 26.4932L26.6152 26.8048L26.2765 26.3344L26.7877 26.0228ZM27.8494 26.0522L27.4536 26.2934L27.2406 25.9981C27.4428 26.0091 27.6455 26.0259 27.8494 26.0522ZM28.52 26.7533L28.0088 27.065L27.6701 26.5946L28.1813 26.2829L28.52 26.7533ZM29.2019 26.3376L28.8466 26.5541L28.5771 26.1789C28.7855 26.2241 28.994 26.2772 29.2019 26.3376ZM29.9135 27.0135L29.4023 27.3252L29.0637 26.8548L29.5748 26.5431L29.9135 27.0135ZM30.7559 26.9325C30.9181 27.0103 31.0792 27.0929 31.2391 27.1801L31.3071 27.2736L30.7959 27.5853L30.4572 27.1149L30.7559 26.9325ZM31.8622 28.0447L31.3511 28.3563L31.0124 27.8859L31.5235 27.5743L31.8622 28.0447ZM32.5858 28.0368C32.7498 28.1582 32.9114 28.2864 33.0702 28.4178L32.7446 28.6165L32.4059 28.1461L32.5858 28.0368ZM33.8069 29.079L33.2998 29.388L32.9616 28.9177L33.3672 28.6701C33.5162 28.802 33.6624 28.9387 33.8069 29.079ZM34.028 29.377L34.3666 29.8474L33.8555 30.1591L33.5168 29.6887L34.028 29.377ZM34.9218 30.6184L34.4112 30.9306L34.0719 30.4602L34.5831 30.148L34.9218 30.6184ZM35.4775 31.39L34.9663 31.7016L34.6276 31.2312L35.1388 30.9196L35.4775 31.39ZM36.0326 32.161L35.5215 32.4727L35.1828 32.0023L35.6939 31.6906L36.0326 32.161ZM36.481 32.9982L36.0772 33.2442L35.7379 32.7738L36.2434 32.4658C36.3279 32.6429 36.4073 32.8201 36.481 32.9982ZM36.8094 33.9075L36.6323 34.0152L36.2936 33.5448L36.6175 33.3477C36.6866 33.5338 36.7523 33.7209 36.8094 33.9075ZM36.2834 36.8807L36.7945 36.569L37.1338 37.0394L36.6226 37.3511L36.2834 36.8807ZM36.0006 38.1631L36.5118 37.8514L36.8511 38.3218L36.3399 38.6335L36.0006 38.1631ZM35.1628 38.6745L35.674 38.3623L36.0126 38.8327L35.5015 39.1449L35.1628 38.6745ZM34.8801 39.9569L35.3912 39.6447L35.7299 40.1151L35.2188 40.4273L34.8801 39.9569ZM34.0422 40.4677L34.5534 40.1561L34.8921 40.6265L34.3809 40.9381L34.0422 40.4677ZM33.2038 40.9786L33.715 40.6669L34.0537 41.1373L33.5431 41.449L33.2038 40.9786ZM32.8771 41.1783L33.2158 41.6487L32.7046 41.9604L32.366 41.49L32.8771 41.1783ZM31.8102 40.7184L32.3214 40.4068L32.6607 40.8772L32.1495 41.1888L31.8102 40.7184ZM30.9724 41.2298L31.4836 40.9182L31.8222 41.3885L31.3111 41.6997L30.9724 41.2298ZM30.6457 41.429L30.9844 41.8994L30.4732 42.2111L30.1345 41.7407L30.6457 41.429ZM30.09 40.658L30.4287 41.1284L29.9175 41.4401L29.5788 40.9697L30.09 40.658ZM29.0237 40.1981L29.5349 39.8864L29.8735 40.3568L29.3624 40.669L29.0237 40.1981ZM28.6964 40.3978L29.0357 40.8682L28.5245 41.1799L28.1853 40.7095L28.6964 40.3978ZM27.6301 39.938L28.1413 39.6263L28.48 40.0967L27.9688 40.4083L27.6301 39.938ZM27.3029 40.1377L27.6421 40.6081L27.131 40.9197L26.7917 40.4493L27.3029 40.1377ZM26.7477 39.3661L27.0864 39.8365L26.5752 40.1482L26.2366 39.6778L26.7477 39.3661ZM25.6814 38.9068L26.1926 38.5951L26.5313 39.0655L26.0201 39.3772L25.6814 38.9068ZM25.3542 39.106L25.6928 39.5764L25.1817 39.888L24.843 39.4182L25.3542 39.106ZM24.799 38.3349L25.1377 38.8053L24.6265 39.117L24.2879 38.6466L24.799 38.3349ZM24.2433 37.5634L24.5826 38.0338L24.0714 38.346L23.7321 37.8756L24.2433 37.5634ZM23.6882 36.7924L24.0269 37.2628L23.5157 37.5744L23.177 37.104L23.6882 36.7924ZM23.133 36.0214L23.4717 36.4917L22.9605 36.8034L22.6219 36.333L23.133 36.0214ZM22.5773 35.2498L22.916 35.7202L22.4048 36.0319L22.0662 35.5615L22.5773 35.2498ZM22.0222 34.4788L22.3609 34.9492L21.8497 35.2608L21.511 34.7905L22.0222 34.4788ZM21.8051 34.1776L21.294 34.4898L20.9559 34.0194L21.467 33.7072L21.8051 34.1776ZM21.7492 32.4254L22.0879 32.8957L21.5767 33.2074L21.238 32.737L21.7492 32.4254ZM21.5327 32.1242L21.0216 32.4359L20.6829 31.9655L21.194 31.6538L21.5327 32.1242ZM21.8154 30.8423L21.3043 31.1535L20.9656 30.6831L21.4767 30.3719L21.8154 30.8423ZM22.6533 30.3309L22.1421 30.6426L21.8034 30.1722L22.3146 29.8605L22.6533 30.3309ZM22.936 29.0485L22.4248 29.3602L22.0861 28.8898L22.5973 28.5781L22.936 29.0485ZM23.7744 28.5377L23.2632 28.8493L22.9246 28.3789L23.4352 28.0673L23.7744 28.5377ZM24.6123 28.0263L24.1011 28.3385L23.7624 27.8681L24.2736 27.5559L24.6123 28.0263ZM24.9395 27.8271L24.6003 27.3567L25.1114 27.045L25.4507 27.5154L24.9395 27.8271ZM26.0058 28.2864L25.4947 28.5981L25.156 28.1277L25.6671 27.816L26.0058 28.2864ZM26.8437 27.7756L26.3331 28.0872L25.9938 27.6169L26.505 27.3052L26.8437 27.7756ZM27.1709 27.5759L26.8323 27.106L27.3434 26.7943L27.6821 27.2647L27.1709 27.5759ZM28.2372 28.0357L27.7261 28.3474L27.3874 27.877L27.8986 27.5653L28.2372 28.0357ZM28.5645 27.836L28.2258 27.3656L28.737 27.054L29.0757 27.5243L28.5645 27.836ZM29.6308 28.2959L29.1196 28.6076L28.781 28.1372L29.2921 27.8255L29.6308 28.2959ZM29.9575 28.0967L29.6194 27.6263L30.13 27.3141L30.4687 27.7845L29.9575 28.0967ZM30.5132 28.8677L30.1745 28.3973L30.6857 28.0857L31.0244 28.5561L30.5132 28.8677ZM31.5795 29.3271L31.0683 29.6387L30.7297 29.1684L31.2408 28.8567L31.5795 29.3271ZM31.9068 29.1279L31.5681 28.6575L32.0792 28.3458L32.4174 28.8162L31.9068 29.1279ZM32.4619 29.8989L32.1232 29.4285L32.6344 29.1168L32.9731 29.5872L32.4619 29.8989ZM33.0176 30.6705L32.6784 30.2001L33.1895 29.8884L33.5288 30.3583L33.0176 30.6705ZM33.5728 31.4415L33.2341 30.9711L33.7452 30.6594L34.0839 31.1298L33.5728 31.4415ZM34.1285 32.213L33.7892 31.7426L34.3004 31.4304L34.6396 31.9008L34.1285 32.213ZM34.6836 32.984L34.3449 32.5137L34.8561 32.202L35.1948 32.6724L34.6836 32.984ZM35.2388 33.7551L34.9001 33.2847L35.4112 32.973L35.7499 33.4434L35.2388 33.7551ZM35.7945 34.5261L35.4558 34.0557L35.9669 33.7446L36.3056 34.2149L35.7945 34.5261ZM36.0109 34.8272L36.5221 34.5156L36.8608 34.986L36.3496 35.2976L36.0109 34.8272ZM35.7282 36.1097L36.2394 35.798L36.5781 36.2684L36.0669 36.58L35.7282 36.1097ZM35.4455 37.3921L35.9567 37.0799L36.2953 37.5503L35.7842 37.8624L35.4455 37.3921ZM34.6077 37.9029L35.1188 37.5913L35.4575 38.0616L34.9463 38.3733L34.6077 37.9029ZM34.3249 39.1853L34.8361 38.8737L35.1748 39.3441L34.6636 39.6557L34.3249 39.1853ZM33.4865 39.6962L33.9983 39.3845L34.3364 39.8549L33.8252 40.1666L33.4865 39.6962ZM33.1598 39.8959L33.4985 40.3663L32.9873 40.678L32.6487 40.2076L33.1598 39.8959ZM32.0935 39.436L32.6047 39.1249L32.9434 39.5953L32.4322 39.9064L32.0935 39.436ZM31.2551 39.9474L31.7663 39.6357L32.1049 40.1061L31.5938 40.4178L31.2551 39.9474ZM30.9278 40.1466L31.2671 40.617L30.7559 40.9287L30.4167 40.4588L30.9278 40.1466ZM30.3727 39.3756L30.712 39.846L30.2008 40.1576L29.8615 39.6873L30.3727 39.3756ZM29.3064 38.9162L29.8176 38.604L30.1562 39.0744L29.6451 39.3866L29.3064 38.9162ZM28.9791 39.1154L29.3184 39.5858L28.8072 39.8975L28.468 39.4271L28.9791 39.1154ZM27.9128 38.6555L28.424 38.3444L28.7627 38.8148L28.2515 39.1259L27.9128 38.6555ZM27.5856 38.8553L27.9248 39.3257L27.4137 39.6373L27.0744 39.1669L27.5856 38.8553ZM27.0304 38.0842L27.3691 38.5546L26.858 38.8663L26.5193 38.3959L27.0304 38.0842ZM25.9641 37.6244L26.4753 37.3127L26.814 37.7831L26.3028 38.0948L25.9641 37.6244ZM25.6369 37.8236L25.9756 38.2939L25.465 38.6061L25.1257 38.1357L25.6369 37.8236ZM25.0817 37.0525L25.4204 37.5229L24.9093 37.8346L24.5706 37.3642L25.0817 37.0525ZM24.5266 36.2815L24.8653 36.7519L24.3541 37.0636L24.0149 36.5932L24.5266 36.2815ZM23.9709 35.5105L24.3096 35.9804L23.7984 36.292L23.4597 35.8216L23.9709 35.5105ZM23.4157 34.7389L23.7538 35.2093L23.2427 35.521L22.9046 35.0506L23.4157 34.7389ZM22.86 33.9679L23.1987 34.4383L22.6875 34.75L22.3489 34.2796L22.86 33.9679ZM22.6436 33.6668L22.1324 33.9784L21.7937 33.508L22.3049 33.1964L22.6436 33.6668ZM22.587 31.914L22.9263 32.3844L22.4151 32.6966L22.0764 32.2262L22.587 31.914ZM22.3711 31.6133L21.86 31.925L21.5207 31.4546L22.0319 31.1429L22.3711 31.6133ZM23.209 31.102L22.6978 31.4141L22.3591 30.9438L22.8703 30.6316L23.209 31.102ZM23.4917 29.8195L22.98 30.1317L22.6419 29.6613L23.153 29.3492L23.4917 29.8195ZM24.3296 29.3087L23.8184 29.6209L23.4797 29.15L23.9909 28.8383L24.3296 29.3087ZM24.6568 29.1095L24.3176 28.6391L24.8287 28.3274L25.168 28.7978L24.6568 29.1095ZM25.7231 29.5688L25.212 29.8805L24.8733 29.4101L25.3844 29.0985L25.7231 29.5688ZM26.5615 29.058L26.0498 29.3696L25.7111 28.8993L26.2223 28.5876L26.5615 29.058ZM26.8882 28.8583L26.5495 28.3879L27.0607 28.0767L27.3994 28.5471L26.8882 28.8583ZM27.9545 29.3181L27.4434 29.6298L27.1047 29.1594L27.6158 28.8478L27.9545 29.3181ZM28.2818 29.1184L27.9425 28.648L28.4537 28.3364L28.793 28.8068L28.2818 29.1184ZM29.3481 29.5778L28.8369 29.89L28.4982 29.4196L29.0094 29.1074L29.3481 29.5778ZM29.6754 29.3791L29.3361 28.9087L29.8473 28.5965L30.1859 29.0669L29.6754 29.3791ZM30.2305 30.1501L29.8918 29.6797L30.403 29.3681L30.7417 29.8385L30.2305 30.1501ZM31.2968 30.6095L30.7856 30.9212L30.447 30.4508L30.9581 30.1391L31.2968 30.6095ZM31.6241 30.4098L31.2848 29.9394L31.7965 29.6282L32.1352 30.0986L31.6241 30.4098ZM32.1792 31.1813L31.8405 30.7109L32.3517 30.3993L32.6904 30.8696L32.1792 31.1813ZM32.7349 31.9529L32.3957 31.4819L32.9068 31.1703L33.2461 31.6407L32.7349 31.9529ZM33.29 32.7239L32.9514 32.2535L33.4625 31.9418L33.8012 32.4122L33.29 32.7239ZM33.8452 33.4949L33.5065 33.025L34.0177 32.7128L34.3564 33.1832L33.8452 33.4949ZM34.4009 34.2665L34.0622 33.7961L34.5734 33.4844L34.9121 33.9548L34.4009 34.2665ZM34.956 35.0375L34.6174 34.5671L35.1285 34.2554L35.4672 34.7258L34.956 35.0375ZM35.1731 35.3381L35.6842 35.027L36.0223 35.4968L35.5112 35.8085L35.1731 35.3381ZM34.8904 36.6205L35.4015 36.3088L35.7402 36.7792L35.229 37.0909L34.8904 36.6205ZM34.0519 37.1319L34.5631 36.8202L34.9024 37.2906L34.3906 37.6023L34.0519 37.1319ZM33.7692 38.4138L34.2804 38.1026L34.6191 38.573L34.1079 38.8842L33.7692 38.4138ZM33.4425 38.6135L33.7812 39.0839L33.2701 39.3956L32.9314 38.9252L33.4425 38.6135ZM32.3762 38.1541L32.8874 37.8425L33.2255 38.3129L32.7143 38.624L32.3762 38.1541ZM31.5378 38.665L32.049 38.3533L32.3877 38.8237L31.8765 39.1354L31.5378 38.665ZM31.2111 38.8642L31.5498 39.3346L31.0386 39.6468L30.7 39.1764L31.2111 38.8642ZM30.6554 38.0932L30.9941 38.5636L30.4829 38.8752L30.1443 38.4048L30.6554 38.0932ZM29.5891 37.6338L30.1003 37.3222L30.439 37.792L29.9278 38.1042L29.5891 37.6338ZM29.2624 37.833L29.6005 38.3034L29.0894 38.6151L28.7507 38.1447L29.2624 37.833ZM28.1955 37.3731L28.7067 37.062L29.0454 37.5324L28.5342 37.8441L28.1955 37.3731ZM27.8689 37.5729L28.2075 38.0432L27.6964 38.3549L27.3577 37.8845L27.8689 37.5729ZM27.3131 36.8018L27.6518 37.2722L27.1407 37.5839L26.802 37.1135L27.3131 36.8018ZM26.2468 36.3425L26.758 36.0303L27.0967 36.5007L26.5855 36.8123L26.2468 36.3425ZM25.9196 36.5417L26.2583 37.0115L25.7471 37.3237L25.4084 36.8533L25.9196 36.5417ZM25.3644 35.7701L25.7031 36.2405L25.192 36.5522L24.8533 36.0818L25.3644 35.7701ZM24.8087 34.9991L25.1474 35.4695L24.6362 35.7812L24.2981 35.3108L24.8087 34.9991ZM24.2536 34.2281L24.5923 34.6985L24.0811 35.0096L23.7424 34.5392L24.2536 34.2281ZM23.6979 33.4565L24.0371 33.9269L23.526 34.2386L23.1873 33.7682L23.6979 33.4565ZM23.4814 33.1559L22.9703 33.4676L22.6316 32.9972L23.1427 32.6855L23.4814 33.1559ZM23.7641 31.8735L23.253 32.1852L22.9143 31.7148L23.4254 31.4031L23.7641 31.8735ZM24.0468 30.5911L23.5357 30.9028L23.197 30.4324L23.7082 30.1207L24.0468 30.5911ZM24.3735 30.3919L24.0354 29.9215L24.5466 29.6098L24.8847 30.0802L24.3735 30.3919ZM25.4404 30.8513L24.9292 31.1629L24.5906 30.6925L25.1017 30.3809L25.4404 30.8513ZM26.2783 30.3404L25.7671 30.6515L25.4284 30.1811L25.9396 29.87L26.2783 30.3404ZM26.6055 30.1407L26.2668 29.6703L26.778 29.3586L27.1167 29.829L26.6055 30.1407ZM27.6718 30.6006L27.1607 30.9122L26.822 30.4418L27.3331 30.1302L27.6718 30.6006ZM27.9991 30.4008L27.6598 29.9304L28.171 29.6188L28.5102 30.0892L27.9991 30.4008ZM29.0654 30.8602L28.5542 31.1724L28.2155 30.702L28.7267 30.3898L29.0654 30.8602ZM29.3926 30.661L29.0534 30.1906L29.5646 29.8789L29.9038 30.3493L29.3926 30.661ZM29.9478 31.4325L29.6091 30.9621L30.1203 30.65L30.4589 31.1209L29.9478 31.4325ZM31.0141 31.8919L30.5029 32.2036L30.1642 31.7332L30.6754 31.4215L31.0141 31.8919ZM31.3413 31.6922L31.0021 31.2218L31.5133 30.9106L31.8525 31.381L31.3413 31.6922ZM31.8965 32.4637L31.5578 31.9933L32.069 31.6817L32.4076 32.1521L31.8965 32.4637ZM32.4516 33.2347L32.1135 32.7644L32.6247 32.4527L32.9628 32.9231L32.4516 33.2347ZM33.0073 34.0063L32.6687 33.5359L33.1798 33.2237L33.5185 33.6941L33.0073 34.0063ZM33.5625 34.7773L33.2244 34.3069L33.7355 33.9953L34.0736 34.4656L33.5625 34.7773ZM34.1182 35.5489L33.7795 35.0785L34.2907 34.7668L34.6294 35.2372L34.1182 35.5489ZM34.3347 35.8495L34.8458 35.5378L35.1845 36.0082L34.6733 36.3199L34.3347 35.8495ZM33.4968 36.3603L34.008 36.0487L34.3466 36.5191L33.8355 36.8307L33.4968 36.3603ZM33.7253 37.3311L34.0639 37.8015L33.5528 38.1132L33.2141 37.6428L33.7253 37.3311ZM32.6584 36.8717L33.1695 36.5601L33.5088 37.0305L32.9976 37.3421L32.6584 36.8717ZM31.8205 37.3826L32.3317 37.0709L32.6704 37.5413L32.1592 37.853L31.8205 37.3826ZM31.4938 37.5818L31.8325 38.0522L31.3208 38.3644L30.9827 37.894L31.4938 37.5818ZM30.9381 36.8108L31.2768 37.2812L30.7656 37.5928L30.427 37.1224L30.9381 36.8108ZM29.8718 36.3514L30.383 36.0397L30.7217 36.5101L30.2105 36.8218L29.8718 36.3514ZM29.5446 36.5506L29.8832 37.021L29.3721 37.3327L29.0334 36.8623L29.5446 36.5506ZM28.4783 36.0913L28.9894 35.7796L29.3281 36.25L28.8169 36.5616L28.4783 36.0913ZM28.1516 36.2904L28.4897 36.7608L27.9785 37.0725L27.6404 36.6021L28.1516 36.2904ZM27.5959 35.5194L27.9345 35.9898L27.4234 36.3015L27.0847 35.8311L27.5959 35.5194ZM26.529 35.0601L27.0401 34.7479L27.3794 35.2183L26.8682 35.5305L26.529 35.0601ZM26.2023 35.2593L26.541 35.7297L26.0298 36.0413L25.6917 35.5709L26.2023 35.2593ZM25.6472 34.4882L25.9858 34.9581L25.4747 35.2703L25.136 34.7999L25.6472 34.4882ZM25.0914 33.7167L25.4307 34.1871L24.9195 34.4988L24.5803 34.0284L25.0914 33.7167ZM24.5363 32.9457L24.875 33.4161L24.3638 33.7272L24.0251 33.2573L24.5363 32.9457ZM24.3198 32.6445L23.8087 32.9562L23.4694 32.4858L23.9806 32.1741L24.3198 32.6445ZM24.0914 31.6743L23.7527 31.2039L24.2639 30.8917L24.6026 31.3621L24.0914 31.6743ZM25.1577 32.1337L24.6465 32.4453L24.3078 31.9749L24.819 31.6633L25.1577 32.1337ZM25.9955 31.6223L25.4844 31.9339L25.1457 31.4635L25.6569 31.1524L25.9955 31.6223ZM26.3228 31.4231L25.9841 30.9527L26.4953 30.641L26.834 31.1114L26.3228 31.4231ZM27.3891 31.8824L26.8779 32.1941L26.5393 31.7237L27.0504 31.412L27.3891 31.8824ZM27.7158 31.6832L27.3777 31.2128L27.8888 30.9012L28.227 31.3716L27.7158 31.6832ZM28.7827 32.1426L28.2715 32.4548L27.9328 31.9844L28.444 31.6722L28.7827 32.1426ZM29.1094 31.9434L28.7707 31.473L29.2818 31.1613L29.6205 31.6317L29.1094 31.9434ZM29.6651 32.7144L29.3264 32.244L29.8376 31.9324L30.1762 32.4028L29.6651 32.7144ZM30.7314 33.1743L30.2202 33.486L29.8815 33.0156L30.3927 32.7039L30.7314 33.1743ZM31.0586 32.9746L30.72 32.5042L31.2311 32.193L31.5698 32.6629L31.0586 32.9746ZM31.6138 33.7461L31.2751 33.2757L31.7863 32.9641L32.1249 33.4345L31.6138 33.7461ZM32.1695 34.5172L31.8308 34.0468L32.342 33.7351L32.6801 34.2055L32.1695 34.5172ZM32.7246 35.2887L32.3859 34.8183L32.8971 34.5061L33.2358 34.9765L32.7246 35.2887ZM32.9411 35.5893L33.4523 35.2777L33.7909 35.7481L33.2803 36.0597L32.9411 35.5893ZM32.1032 36.1007L32.6144 35.7885L32.9531 36.2589L32.4419 36.5711L32.1032 36.1007ZM31.776 36.2999L32.1152 36.7703L31.6041 37.082L31.2654 36.6116L31.776 36.2999ZM31.2208 35.5284L31.5595 35.9988L31.0484 36.3109L30.7097 35.84L31.2208 35.5284ZM30.1545 35.069L30.6657 34.7573L31.0044 35.2277L30.4932 35.5394L30.1545 35.069ZM29.8273 35.2682L30.1665 35.7386L29.6548 36.0503L29.3161 35.5799L29.8273 35.2682ZM28.761 34.8088L29.2721 34.4972L29.6108 34.9676L29.0997 35.2792L28.761 34.8088ZM28.4337 35.008L28.773 35.479L28.2618 35.7901L27.9225 35.3197L28.4337 35.008ZM27.8786 34.237L28.2173 34.7074L27.7061 35.0191L27.3674 34.5487L27.8786 34.237ZM26.8117 33.7777L27.3229 33.4655L27.6621 33.9359L27.1509 34.2481L26.8117 33.7777ZM26.485 33.9769L26.8237 34.4472L26.3125 34.7589L25.9738 34.2885L26.485 33.9769ZM25.9299 33.2053L26.2685 33.6757L25.7574 33.9879L25.4187 33.5175L25.9299 33.2053ZM25.7134 32.9047L25.2022 33.2163L24.863 32.746L25.3742 32.4348L25.7134 32.9047ZM26.0401 32.7055L25.7014 32.2351L26.2126 31.9234L26.5513 32.3938L26.0401 32.7055ZM27.1064 33.1648L26.5958 33.4765L26.2566 33.0061L26.7677 32.6945L27.1064 33.1648ZM27.4337 32.9656L27.095 32.4953L27.6061 32.1836L27.9448 32.654L27.4337 32.9656ZM28.5 33.425L27.9888 33.7367L27.6501 33.2663L28.1613 32.9546L28.5 33.425ZM28.8272 33.2258L28.4885 32.7554L28.9997 32.4437L29.3378 32.9141L28.8272 33.2258ZM29.0557 34.1965L28.5445 34.5082L28.2053 34.0378L28.7164 33.7262L29.0557 34.1965ZM29.3824 33.9968L29.0437 33.5264L29.5548 33.2148L29.8935 33.6852L29.3824 33.9968ZM30.4492 34.4567L29.9381 34.7679L29.5988 34.2975L30.11 33.9863L30.4492 34.4567ZM30.7759 34.257L30.4372 33.7866L30.9484 33.4749L31.2871 33.9453L30.7759 34.257ZM32.0587 35.0175L32.3979 35.4879L31.8868 35.7996L31.5475 35.3292L32.0587 35.0175ZM31.3311 35.0285L30.9924 34.5581L31.5035 34.246L31.8422 34.7163L31.3311 35.0285ZM37.1389 35.3728C37.164 35.5457 37.1846 35.7181 37.1995 35.8894L36.9047 36.0692L36.5666 35.5988L37.0778 35.2866L37.1389 35.3728ZM38.0436 38.4117C38.5964 35.8647 37.9493 32.83 36.0241 30.1575C32.6972 25.5371 26.8014 23.7228 22.8823 26.1137C18.9626 28.504 18.4806 34.2071 21.8074 38.8274C23.7333 41.501 26.5193 43.2328 29.2847 43.7557C31.5001 44.2519 33.635 45.1948 35.4878 46.505C35.7356 46.33 35.9795 46.1503 36.2177 45.9605C36.1588 45.9174 36.104 45.8696 36.0446 45.827C34.9092 45.0187 33.6704 44.3449 32.3751 43.8125C33.2883 43.6611 34.1599 43.3526 34.9498 42.8712C35.7402 42.3892 36.3879 41.7712 36.8956 41.0559C36.9225 42.3293 37.1121 43.6081 37.461 44.8563C37.7209 44.6003 37.9808 44.3454 38.2246 44.0711C37.7894 42.1948 37.7152 40.2633 38.0436 38.4117Z" fill="#CCF201"/>
</g>
</svg>
